{
  "source": "C:\\Users\\Peter\\Desktop\\stuff\\MIUN\\quantitative_research\\video_compression\\videos\\BVI-HD\\BVI-HD_CDVL_videos\\ORIG\\Surfers_1920x1080_30fps.mp4",
  "output": "C:\\Users\\Peter\\Desktop\\stuff\\MIUN\\quantitative_research\\video_compression\\compressed_videos\\BVI-HD\\av1\\8\\Surfers_1920x1080_30fps_av1.mkv",
  "codec": "av1",
  "ok": "Input #0, mov,mp4,m4a,3gp,3g2,mj2, from 'C:\\Users\\Peter\\Desktop\\stuff\\MIUN\\quantitative_research\\video_compression\\videos\\BVI-HD\\BVI-HD_CDVL_videos\\ORIG\\Surfers_1920x1080_30fps.mp4':\n  Metadata:\n    major_brand     : isom\n    minor_version   : 512\n    compatible_brands: isomiso2avc1mp41\n    encoder         : Lavf54.28.101\n  Duration: 00:00:05.00, start: 0.000000, bitrate: 232762 kb/s\n  Stream #0:0[0x1](und): Video: h264 (High 4:4:4 Predictive) (avc1 / 0x31637661), yuv420p(progressive), 1920x1080, 232759 kb/s, 30 fps, 30 tbr, 30 tbn (default)\n    Metadata:\n      handler_name    : VideoHandler\n      vendor_id       : [0][0][0][0]\n[out#0/matroska @ 00000261f61f1200] Codec AVOption b:a (set bitrate (in bits/s)) has not been used for any stream. The most likely reason is either wrong type (e.g. a video option with no video streams) or that it is a private option of some decoder which was not actually used for any stream.\nStream mapping:\n  Stream #0:0 -> #0:0 (h264 (native) -> av1 (libsvtav1))\nPress [q] to stop, [?] for help\nSvt[info]: -------------------------------------------\nSvt[info]: SVT [version]:\tSVT-AV1 Encoder Lib v3.1.0-19-g6ecfe8ec\nSvt[info]: SVT [build]  :\tGCC 15.2.0\t 64 bit\nSvt[info]: LIB Build date: Aug 17 2025 11:37:13\nSvt[info]: -------------------------------------------\nSvt[info]: Level of Parallelism: 5\nSvt[info]: Number of PPCS 93\nSvt[info]: [asm level on system : up to avx2]\nSvt[info]: [asm level selected : up to avx2]\nSvt[info]: -------------------------------------------\nSvt[info]: SVT [config]: main profile\ttier (auto)\tlevel (auto)\nSvt[info]: SVT [config]: width / height / fps numerator / fps denominator \t\t: 1920 / 1080 / 30 / 1\nSvt[info]: SVT [config]: bit-depth / color format \t\t\t\t\t: 8 / YUV420\nSvt[info]: SVT [config]: preset / tune / pred struct \t\t\t\t\t: 4 / PSNR / random access\nSvt[info]: SVT [config]: gop size / mini-gop size / key-frame type \t\t\t: 161 / 16 / key frame\nSvt[info]: SVT [config]: BRC mode / target bitrate (kbps)\t\t\t\t: VBR / 8000 \nSvt[info]: SVT [config]: AQ mode / Variance Boost \t\t\t\t\t: 2 / 0\nSvt[info]: SVT [config]: sharpness / luminance-based QP bias \t\t\t\t: 0 / 0\nSvt[info]: SVT [config]: QP scale compress strength \t\t\t\t\t: 0\nSvt[info]: -------------------------------------------\nOutput #0, matroska, to 'C:\\Users\\Peter\\Desktop\\stuff\\MIUN\\quantitative_research\\video_compression\\compressed_videos\\BVI-HD\\av1\\8\\Surfers_1920x1080_30fps_av1.mkv':\n  Metadata:\n    major_brand     : isom\n    minor_version   : 512\n    compatible_brands: isomiso2avc1mp41\n    encoder         : Lavf62.3.100\n  Stream #0:0(und): Video: av1 (AV01 / 0x31305641), yuv420p(tv, progressive), 1920x1080, q=2-31, 8000 kb/s, 30 fps, 1k tbn (default)\n    Metadata:\n      encoder         : Lavc62.11.100 libsvtav1\n      handler_name    : VideoHandler\n      vendor_id       : [0][0][0][0]\n    Side data:\n      cpb: bitrate max/min/avg: 0/0/8000000 buffer size: 8000000 vbv_delay: N/A\nframe=    0 fps=0.0 q=0.0 size=       0KiB time=N/A bitrate=N/A speed=N/A elapsed=0:00:01.10    \nframe=    0 fps=0.0 q=0.0 size=       0KiB time=N/A bitrate=N/A speed=N/A elapsed=0:00:01.73    \nframe=    0 fps=0.0 q=0.0 size=       0KiB time=N/A bitrate=N/A speed=N/A elapsed=0:00:02.30    \nframe=    0 fps=0.0 q=0.0 size=       0KiB time=N/A bitrate=N/A speed=N/A elapsed=0:00:02.88    \nframe=    0 fps=0.0 q=0.0 size=       0KiB time=N/A bitrate=N/A speed=N/A elapsed=0:00:03.40    \nframe=    0 fps=0.0 q=0.0 size=       0KiB time=N/A bitrate=N/A speed=N/A elapsed=0:00:03.92    \nframe=    1 fps=0.2 q=12.0 size=       1KiB time=00:00:00.00 bitrate=N/A speed=   0x elapsed=0:00:04.46    \nframe=    1 fps=0.2 q=12.0 size=       1KiB time=00:00:00.00 bitrate=N/A speed=   0x elapsed=0:00:04.99    \nframe=    1 fps=0.2 q=12.0 size=       1KiB time=00:00:00.00 bitrate=N/A speed=   0x elapsed=0:00:05.52    \nframe=    3 fps=0.5 q=24.0 size=       1KiB time=00:00:00.06 bitrate=  85.6kbits/s speed=0.011x elapsed=0:00:06.03    \nframe=    6 fps=0.9 q=26.0 size=       1KiB time=00:00:00.16 bitrate=  34.2kbits/s speed=0.0254x elapsed=0:00:06.56    \nframe=    7 fps=1.0 q=23.0 size=       1KiB time=00:00:00.20 bitrate=  28.5kbits/s speed=0.0282x elapsed=0:00:07.09    \nframe=   10 fps=1.3 q=21.0 size=       1KiB time=00:00:00.30 bitrate=  19.0kbits/s speed=0.0393x elapsed=0:00:07.63    \nframe=   14 fps=1.7 q=21.0 size=       1KiB time=00:00:00.40 bitrate=  14.3kbits/s speed=0.0488x elapsed=0:00:08.19    \nframe=   18 fps=2.1 q=25.0 size=       1KiB time=00:00:00.56 bitrate=  10.1kbits/s speed=0.0648x elapsed=0:00:08.74    \nframe=   21 fps=2.3 q=17.0 size=       1KiB time=00:00:00.66 bitrate=   8.6kbits/s speed=0.0719x elapsed=0:00:09.26    \nframe=   23 fps=2.3 q=21.0 size=       1KiB time=00:00:00.73 bitrate=   7.8kbits/s speed=0.0744x elapsed=0:00:09.85    \nframe=   25 fps=2.4 q=17.0 size=       1KiB time=00:00:00.80 bitrate=   7.1kbits/s speed=0.0768x elapsed=0:00:10.42    \nframe=   28 fps=2.5 q=26.0 size=       1KiB time=00:00:00.90 bitrate=   6.3kbits/s speed=0.0818x elapsed=0:00:11.00    \nframe=   31 fps=2.7 q=23.0 size=       1KiB time=00:00:00.96 bitrate=   5.9kbits/s speed=0.083x elapsed=0:00:11.64    \nframe=   34 fps=2.8 q=26.0 size=       1KiB time=00:00:01.10 bitrate=   5.2kbits/s speed=0.0898x elapsed=0:00:12.25    \nframe=   36 fps=2.8 q=26.0 size=       1KiB time=00:00:01.16 bitrate=   4.9kbits/s speed=0.0913x elapsed=0:00:12.78    \nframe=   38 fps=2.9 q=26.0 size=       1KiB time=00:00:01.23 bitrate=   4.6kbits/s speed=0.0927x elapsed=0:00:13.30    \nframe=   41 fps=3.0 q=19.0 size=       1KiB time=00:00:01.33 bitrate=   4.3kbits/s speed=0.0963x elapsed=0:00:13.85    \nframe=   45 fps=3.1 q=21.0 size=       1KiB time=00:00:01.46 bitrate=   3.9kbits/s speed=0.102x elapsed=0:00:14.40    \nframe=   50 fps=3.3 q=28.0 size=       1KiB time=00:00:01.63 bitrate=   3.5kbits/s speed=0.109x elapsed=0:00:14.95    \nframe=   55 fps=3.6 q=26.0 size=       1KiB time=00:00:01.80 bitrate=   3.2kbits/s speed=0.116x elapsed=0:00:15.49    \nframe=   57 fps=3.6 q=21.0 size=       1KiB time=00:00:01.86 bitrate=   3.1kbits/s speed=0.117x elapsed=0:00:16.00    \nframe=   61 fps=3.7 q=23.0 size=       1KiB time=00:00:02.00 bitrate=   2.9kbits/s speed=0.121x elapsed=0:00:16.51    \nframe=   67 fps=3.9 q=29.0 size=       1KiB time=00:00:02.20 bitrate=   2.6kbits/s speed=0.129x elapsed=0:00:17.02    \nframe=   73 fps=4.2 q=23.0 size=       1KiB time=00:00:02.40 bitrate=   2.4kbits/s speed=0.137x elapsed=0:00:17.54    \nframe=   77 fps=4.3 q=24.0 size=       1KiB time=00:00:02.53 bitrate=   2.3kbits/s speed=0.14x elapsed=0:00:18.06    \nframe=   81 fps=4.4 q=18.0 size=       1KiB time=00:00:02.66 bitrate=   2.1kbits/s speed=0.144x elapsed=0:00:18.58    \nframe=   85 fps=4.5 q=27.0 size=       1KiB time=00:00:02.80 bitrate=   2.0kbits/s speed=0.147x elapsed=0:00:19.09    \nframe=   89 fps=4.5 q=24.0 size=       1KiB time=00:00:02.93 bitrate=   1.9kbits/s speed=0.15x elapsed=0:00:19.60    \nframe=   93 fps=4.6 q=25.0 size=       1KiB time=00:00:03.06 bitrate=   1.9kbits/s speed=0.152x elapsed=0:00:20.14    \nframe=   99 fps=4.8 q=29.0 size=       1KiB time=00:00:03.26 bitrate=   1.7kbits/s speed=0.158x elapsed=0:00:20.67    \nframe=  105 fps=5.0 q=25.0 size=       1KiB time=00:00:03.46 bitrate=   1.6kbits/s speed=0.164x elapsed=0:00:21.19    \nframe=  107 fps=4.9 q=28.0 size=       1KiB time=00:00:03.53 bitrate=   1.6kbits/s speed=0.163x elapsed=0:00:21.72    \nframe=  111 fps=5.0 q=28.0 size=       1KiB time=00:00:03.66 bitrate=   1.6kbits/s speed=0.165x elapsed=0:00:22.25    \nframe=  117 fps=5.1 q=26.0 size=       1KiB time=00:00:03.86 bitrate=   1.5kbits/s speed=0.17x elapsed=0:00:22.78    \nframe=  121 fps=5.2 q=25.0 size=       1KiB time=00:00:04.00 bitrate=   1.4kbits/s speed=0.172x elapsed=0:00:23.31    \nframe=  123 fps=5.2 q=29.0 size=       1KiB time=00:00:04.06 bitrate=   1.4kbits/s speed=0.171x elapsed=0:00:23.83    \nframe=  127 fps=5.2 q=30.0 size=       1KiB time=00:00:04.20 bitrate=   1.4kbits/s speed=0.173x elapsed=0:00:24.34    \nframe=  133 fps=5.3 q=30.0 size=       1KiB time=00:00:04.33 bitrate=   1.3kbits/s speed=0.174x elapsed=0:00:24.86    \nframe=  135 fps=5.3 q=30.0 size=       1KiB time=00:00:04.46 bitrate=   1.3kbits/s speed=0.176x elapsed=0:00:25.42    \nframe=  137 fps=5.3 q=27.0 size=       1KiB time=00:00:04.53 bitrate=   1.3kbits/s speed=0.175x elapsed=0:00:25.97    \nframe=  141 fps=5.3 q=30.0 size=       1KiB time=00:00:04.66 bitrate=   1.2kbits/s speed=0.176x elapsed=0:00:26.52    \n[out#0/matroska @ 00000261f61f1200] video:5360KiB audio:0KiB subtitle:0KiB other streams:0KiB global headers:0KiB muxing overhead: 0.027803%\nframe=  150 fps=5.6 q=30.0 Lsize=    5361KiB time=00:00:04.96 bitrate=8843.1kbits/s speed=0.184x elapsed=0:00:27.01    \n",
  "seconds": 27.58721399307251,
  "probe_out": {}
}